<?xml version="1.0" encoding="utf-8"?>
<svg viewBox="90.60002899169922 114.30001831054688 617.8999633789062 370.60003662109375"
    width="617.8999633789062" height="300.60003662109375" xmlns="http://www.w3.org/2000/svg">
    <g transform="matrix(1, 0, 0, 1, 0, 1.4210854715202004e-14)">
        <path class="st2"
            d="M308.3,406.4c1-3.4,0.7-9.5,1.4-13.5c0.6-3.6,8.5-9.1,6.1-16.1c-0.3-0.9-1-0.8-2.6-1.1&#10;&#9;&#9;&#9;c-2.3-0.9-1.2-3.1-4.3-4.5c-1.8-0.9-6.5-1.4-8.3-0.9c-1.3,0.8-1.2-2.1-4.9-3.7c-1.9-0.9-3.2-3.3-7.5,0.5c-0.8,0.8-0.4,0.1-1.6-0.3&#10;&#9;&#9;&#9;c-1.3-0.5,5.4-4.6,3.3-5.5c-2.6-2.8-0.5-7.8-11.8-8.4c-1.5,0.1-2.7-2.2-4.5-4.6c-0.7-0.9-1.9-0.1-2.8-1c-1.2-1.1-0.4-4.5-2.2-4.8&#10;&#9;&#9;&#9;c-1.7-0.3-3.7,0-5.6,1.7c-0.8,1.1-2.4-1.3-4.9-1c-2,0.3-0.7-2.5-3-2.4c-4.1,0.1-1.4,5.4-2.6,5.2c-4.1-0.6-0.8-3.4-1.3-6.3&#10;&#9;&#9;&#9;c-0.3-1.9-2.6-3.3-3.1-3.3c-0.4-0.2-1.2-0.5-2.3-0.1c-1.8,0.7-4.2,1.8-6.1-1.4c-1.8-2.8,0.1-5.9-0.7-10.2&#10;&#9;&#9;&#9;c-0.7-2.4-4.7-1.4-4.7-1.4c-9.6,2.1,0.8-9.1-1.8-11.9c-1-1.1-1.7-0.4-3.7-0.1c-2.2,0.2-0.5,9.4-8.9,5.7c-1.3-0.7-3.6-1.9-4.7-4.8&#10;&#9;&#9;&#9;c-2.3-6-2.2-15.6,3.4-17.2c1.6-0.3,3.5-2.9,9.2-1.1c1.6,0.1,2-4.1,4.4-3.2c2.1,0.8,6.4,0.8,7.4,1.9c3.5,3.2-0.5,6.1,4.6,9.8&#10;&#9;&#9;&#9;c0.2,0,1.7,0.8,1.2-3.2c-0.4-3.6-4.3-8.7-0.9-12.7c2.4-2.7,4.1-2.8,7.6-6.3c1.6-1.6-2.4-8.4,2.2-9.4c1.6,0.2,1.4-4.5,3.9-5.3&#10;&#9;&#9;&#9;c0.3-0.1,2.6,0.6,3.9-1c1.2-0.7-1.1-4.4,1.6-5.8c1.1-1,3.7-1,4.9-2.1c0.8-0.7,1.6-1.5,2.4-2.3c0.8-0.6,2,0.6,1.7,1.4&#10;&#9;&#9;&#9;c-0.1,0.6-3.3,2.6-1.8,4c1.4,1.1,3.2-1.5,3.9-2.3c1.3-1.4,2.8-0.1,4-2c0.5-0.9-1.9-0.3-4.3-1.6c-1.4-0.8-3.1-1.1-2.5-4&#10;&#9;&#9;&#9;c-0.2-1.3-2.4,0-1.9-1.4c0.5-1.1,1.6-0.1,2.5-1.3c1-1.8-1.7-1.5-4.2-1.1c-2,0.3-5.4,4.4-5.9,3.5c0.2-2.1,5.6-4.4,5.6-5.1&#10;&#9;&#9;&#9;c0.3-2.2,6.2-2.6,9.4-2.4c3.4,1.2,6.6-3.7,8.2-3.2c1.2,0.1,3.5-2.8,1.7-5.1c-2.3-3.8-6.2-4.8-10-8.1c-1.5-1.1,1.5-4.6-4.5-10.4&#10;&#9;&#9;&#9;c-1.6-1.1-2.3,5.7-5.4,4.8c-9.8,0.1,0.5-8.2-6.1-8.4c-2-0.6-1.8-2.9-3.7-3.8c-2-0.9-3.1,0.8-4.7,0.1c-1-0.5-2.1-1-3.2-1.5&#10;&#9;&#9;&#9;c-1.1-0.5-0.1,1.9-0.3,4.8c-0.3,1.4,1.2,2.7,1.1,3.9c-0.1,1.3-1.4,1.9-1.4,3.3c0,1.7,3,2.9,2.9,5.4c-0.3,5-4.2,4.5-4.8,6.9&#10;&#9;&#9;&#9;c-0.2,0.9,0.1,1.4,0.2,2.1c1.4,6.2,0,7.5-1.6,7c-1.2-0.4-3.2-2.9-4.2-5.7c-0.6-1.7,1.7-3.9-1.2-4.6c-1.7-0.9-3.5-0.8-5.4-1.5&#10;&#9;&#9;&#9;c-3-0.7-3.4-3.2-5.5-4c-2.2-1.4-4.1-0.1-5-0.5c-1.8-0.9-0.7-3-2-4.3c-1.2-1.8-3.6,0.7-2.9-5c0.2-2,4.9-6.5,6.5-9.8&#10;&#9;&#9;&#9;c0.5-1-3.8-1.7-3-2.4c0.9-0.9,2.6,0.9,4.3,0.8c1.1,0.1,3.8-2,4.1-2.2c2.2-2.2-5-4.3-4.2-5.3c0.6-0.7,3.3,0.9,5,1.2&#10;&#9;&#9;&#9;c0.5,0.2,1.4-0.1,1.9-1.2c0.3-0.6,0.2-2.1,0.6-2.5c0.7-0.6,2.2,0.1,2.7,0.3c2.5,0.6,4.3-0.2,4.9-1.5c0.6-1.3-1-3.3-1.6-5&#10;&#9;&#9;&#9;c-0.3-1.2,2.8-1.1,1.7-2.6c-0.5-1-2.2-0.8-2.6-1.1c-2.1-1.7-4.4,9.7-7.1,8.3c-0.7-0.4-1.9-1.4-2.1-3c-0.1-0.9,1.3-1.7,0.5-3&#10;&#9;&#9;&#9;c-1.5-2.7-2.4,2.5-3.4,0.9c-1-5.9-3.7-2.2-4.2-4.3c-0.2-1,0.8-1.2,0.7-2.1c-0.1-0.9-0.9-1.5-1.3-2.4c-0.4-0.8-0.3-1.4-0.6-1.9&#10;&#9;&#9;&#9;c-0.2-1.2-1.2-1.1-2.6-1.3c-0.8-0.1-1.1,1.7-2.1,1.6c-0.9-0.1-1.6,3.4,0,5.6c1.3,1.8,4.7,0.3,5.1,2.4c0.4,1.8-4.1,3.8-4,5.2&#10;&#9;&#9;&#9;c0.2,1.7,0,2.5-0.8,2.6c-1.5,0.1-0.7-3.5-1.9-3.5c-1,0-0.8,1.7-1.8,1.7c-2.3-1.1-5.1,0-7.7-0.3c-1.1-0.1-3.2-1.3-4.4-1.4&#10;&#9;&#9;&#9;c-1.6-0.2-4.3-0.2-4.9,1c-0.6,1.4,1.7,4.3-0.8,3.7c-2.2-0.4,0.7-2.7-3.5-3.8c-2.2-1-6.1,1.3-8,0.8c-5-1.9,2.6-2.8-1.1-4.1&#10;&#9;&#9;&#9;c-1.7-0.7-3.1,0-5.4-0.8c-1.3-0.4-2.3-0.8-3.5-1.5c-3.8-2.7-7.3,0-7.4-0.1c-6.3,2.3-3.2-6.1-7-5.3c-0.9,0.2-1,2.9-2.4,3.3&#10;&#9;&#9;&#9;c-1.2,0.3-0.2-2.3-1.5-2c-3.5,1-6,4.4-10.2,5.9c-2.8,1-5.7-1.6-9.9-3.3c-6.2-2.5-13.1-4.3-17.4-2.6c-1.6,0.6-2-2.3-5.1-2.4&#10;&#9;&#9;&#9;c-0.7-0.1-1.3,0.5-1.9,0.2c-0.7-0.3-1.3-1.7-2.1-1.6c-0.9,0.1-1.8,1.2-2.7,1.5c-0.8,0.3-2.2-0.2-3,0.3c-0.7,0.4-0.3,1.8-1.1,2&#10;&#9;&#9;&#9;c-1.5,0.8-1.5-0.4-2.8,0.3c-1.5,0.8-2.6,3.7-3.7,4.4c-1.6,1.3-3.2,0.1-4,1.1c-0.7,0.9-0.3,3.4,4.6,5.6c3,1.7,6.6,2,6.5,3.2&#10;&#9;&#9;&#9;c-0.1,0.7-2.5,1.2-5.2,1c-0.9-0.1-2-1.2-2.9-1.2c-1.3,0-2.1,0.9-3,1.3c-0.8,0.4-1.5-0.1-1.9,0.7c-0.4,0.8,0.7,1,1.5,1.9&#10;&#9;&#9;&#9;c1,0.6-1.4,4.4,3.4,3c1.4-0.1,2.4,0.2,3.4-0.1c1.7-0.5,2.5-2,3.2-0.8c0.3,0.8,0.4,2.2-0.4,3.4c-0.5,1.2-5.2,0.6-6,1.5&#10;&#9;&#9;&#9;c-1.7,1.9-2.8,4.2-2.7,5.6c0.1,1.2,1.1,1.5,1.2,1.8c0.8,0.4,1.4,3.4,2.5,3.6c1.3,0.3,2.6-1.9,3.4-0.8c0.4,0.7,0.2,3.1,0.7,3.8&#10;&#9;&#9;&#9;c0.9,1.3,6.5-1.1,7.6,0.5c1.7,3-6.2,6.4-5.2,7.8c0.5,0.7,3.6-0.1,6.3-3.3c1-1.2,3.7-2.5,4.7-3.9c1-1.4-0.2-2.2,0.4-3.1&#10;&#9;&#9;&#9;c0.5-0.9,1.6-1.6,2.3-2.4c1.8-2.1,3.4-3.9,3.9-3.3c1.2,1.1-3.3,3.9-1.8,6c0.7,0.9,1.8-0.1,3.2-1.9c0.4-0.7,1.3,0.4,1.8-0.4&#10;&#9;&#9;&#9;c1.2-1-0.5-3.7,1.9-3.2c2.1,0.8,3.2,2.8,6.1,3.1c3.1,0.3,7.1-0.1,8.1,1.2c0.9,1.2,2.3,2.8,4.1,3.7c1.3,0.8,1.8,0,2.6,0.1&#10;&#9;&#9;&#9;c1.5,0.1,2.8,0.7,4.1,3.7c1.3,1.9-0.3,9,1,11.2c0.9,1.7,2.2-2,3.8-1.5c2.5,0.1,3.8,2.6,5,6.8c0.6,1-2.6,0.7-1.2,2.8&#10;&#9;&#9;&#9;c1.2,1.9,4.7,2.7,6,4.7c1,1.6,2,5.5,2,8.5c-0.1,2.4-1.2,3.7-1,6.4c0.3,5.8,2.2,11.3,4.1,14.2c0.7,1.2,1.9,3.9,2.6,5.1&#10;&#9;&#9;&#9;c1.3,2.1,3.8,1.2,5.1,3.3c0.9,1.4,2.4,4.8,3.8,7.2c1,1.7,1.9,2.3,2.6,3.8c0.4,1-1.2,1.5-0.3,3c1.3,2.1,2.2-0.4,3.6,1.7&#10;&#9;&#9;&#9;c0.7,1,0.9,3.4,1.6,4.4c0.3,0.5,0.7-0.4,0-2.8c-0.8-2.7-4.8-7.4-5.8-10.3c-0.9-2.7,1-3.9,1.6-3.5c1.2,0.9,1.4,1.8,1.8,2.3&#10;&#9;&#9;&#9;c0.9,1.5,0.3,3.4,2.4,5.6c1.2,1.3,6.2,7.2,8.7,11.2c3.1,4,0.7,5.8,2.8,8.2c1.9,3.1,8.1,3.8,10,5.9c0.9,1.2,2.7,1.9,4.5,2&#10;&#9;&#9;&#9;c1.8,0.1,3.6-0.4,4.3-0.3c1.3,0.1,3.2,3.5,5.2,3.9c3,0.7,6.3,0.1,7.9,3.4c0.9,1.8,3.3,5.5,5.3,6.9c2.6,1.9,4.5,1.5,5.8,3.9&#10;&#9;&#9;&#9;c1,0.9,0.7-3.3,2-3.2c0.9,0,1.6,0.4,1.8,1.3c0.8,2.7-8.3,8.3-7.7,11.1c0.4,1.7,1.3,4.9,0.1,8.1c-1.1,2.9-3.8,4.8-5.3,7.6&#10;&#9;&#9;&#9;c-2.5,4.9,1.1,3.5,0.9,5.2c-0.3,1.7-3.4,0.7-2.7,4.2c0.6,2.6,2.7,4,3.9,5.9c1.4,2.2,2,4.7,3.1,6.8c1.3,2.3,2.4,5.2,3.7,7.2&#10;&#9;&#9;&#9;c1.4,2,5,3.1,6.2,4.6c3.3,4.1,3.6,7.1,3.6,8.1c0,4.5-0.5,9.5-1.2,14.6c-0.3,1.8-0.5,3.7-0.8,5.6c-0.2,1.4-0.4,2.7-0.7,4.1&#10;&#9;&#9;&#9;c-0.2,1,0.2,2.9,0,3.9c-0.8,4.3-2.5,6.6-3,9.1c-0.8,3.7,0.4,5.2-0.4,9.5c-0.1,1.1,1.1,0.8,1.7,2.2c0.7,1.7,0.8,5.3,0.1,7.3&#10;&#9;&#9;&#9;c-0.6,2.2-1.8,4-2.2,5.7c-0.8,3.6-0.5,6.4-0.3,8.6c0.3,4.8,1.9,6.3,3.8,6.3c1.9,0,4.7-0.4,4.3-5c0.1-1.1,1.8-0.9,2.1-2.4&#10;&#9;&#9;&#9;c0.4-3.9,4.1-4,3.8-6.2c-0.2-2.9-4.4-2.4-2.6-5.6c0.6-0.9,1.6-1.3,2.7-2.1c3.1-1.6,0.8-8.5,1.7-8.9c1.3-1.6,2.5,0.8,4.1-0.3&#10;&#9;&#9;&#9;c1.1-0.8,1.4-3.5,0.7-4.8c0.3-1.8,6,1,8.1-1.9c2.7-3-1.8-8-1.4-8.6c0.7-1.8,5.2,2,7,0.2c2.4-2.3,4.3-5.5,5.1-9.3&#10;&#9;&#9;&#9;c0.3-1.7,7-3.1,4.9-11.9c-0.4-1.8,8.4-7.8,10.4-5.5C303.1,413.3,306.6,411.8,308.3,406.4z"
            style="fill: rgb(204, 204, 204); opacity: 1;" />
        <path class="st2"
            d="M269.9,146c1.2,1.7,5.1-0.4,7.6,0.4c2.7,0.8,3.6,3.7,4.4,4.7c1.1,1.5,2.4,4.2,2.6,7c0.3,2.8-1,4.8,0.6,7&#10;&#9;&#9;&#9;c1,1.4,2.8-2.4,3.7-1.2c2,2.8,2.8,6.5,2.9,7.1c0.1,1-0.6,3.8-1.9,6.5c-1.4,2.9-3.5,5.6-3.2,7.3c1,4.7,4.4,7.8,6.4,10.8&#10;&#9;&#9;&#9;c3.2,4.8,5.3,8.4,7.3,8.9c1.5,0.6,2.3-1.4,4.4-1.4c2.9,0,3.7,7,6.8,1.8c0.6-1.3,1-3.5,1.3-6.1c0.3-2.1-1-1.8-0.8-2.8&#10;&#9;&#9;&#9;c0.1-0.8,1.5-1.9,1.6-2.8c0.4-3.4,1-6.6,1.8-8.2c1.7-3.2,3.7-4.8,6.4-5.5c5.6-1.6,3.3-7.9,6-10.4c2-1.9,5.6-1.3,7.3-3.2&#10;&#9;&#9;&#9;c2.7-3.1,4.6-6.5,4.6-10.7c0.1-5.3-5.9-2.7-9.6-4.2c-1.4-0.5-2.4-2.2-2.7-3.1c-1-2.7,7.9,0.9,5.1-7c-1.1-2.4-3.8,0.6-7.4-4.7&#10;&#9;&#9;&#9;c-1.5-2.1-2.9-3.1-4.4-5.5c-0.7-1.3-1.3-2.7-1.8-5.1c-0.3-1.3-1.8-1.1-2.1-2.4c-0.6-2.4,1.7-5.7-0.7-6.4c-1.5-0.9-2.5,2.8-4.1,4.4&#10;&#9;&#9;&#9;c-1.3,0.9-0.6-2.1-1.4-2.2c-0.6-0.1-2,2.3-2.4,2.3c-2.4,0.1,6.5-7-6.7-5.8c-3.7,0-4.4,4.5-6.9,6.6c-2,1.6-5.8,0.7-8.7,1.8&#10;&#9;&#9;&#9;c-3.9,1.5-5.8,8.1-9.6,10.3c-2.7,1.6-6.6,1.1-8,2.8C267.6,138.3,266.3,141.1,269.9,146z"
            style="fill: rgb(204, 204, 204); opacity: 1;" />
        <path class="st2"
            d="M232.1,177.1c1.6,1.1,3.4,2.6,5.9,2.9c1.9,0.2,4.8-0.3,6.7-0.1c2.5,0.2,3.8,1.1,5.5,1.1c2.6,0,8.6,4,9.6,8.8&#10;&#9;&#9;&#9;c0.3,1.4-2.1,3.6-3.9,6.6c-1,2.4-5.6,0.5-5.6,3c0.1,1.5,1.6,0.9,3.2,0.8c2.1-0.1,4.3-0.7,4.6-0.2c1.6,0.6,3.2,3.4,4.9,4.9&#10;&#9;&#9;&#9;c2.3,2,3.7,2.6,5.6,3.2c4.4,0.8-2.5-4.7-2-5.6c0.5-0.9,5.4,3.3,5.8,1.8c1-3.6-5.3-7.4-5-9.6c-0.1-0.3,0.7-1.9,1.9-1.9&#10;&#9;&#9;&#9;c1,0,3.9,3.9,5.1,4.1c2.5,0.5,3.5-3.6,3.4-4.1c-0.4-1.5-1.9-0.2-3.1-1.8c-1.8-3.7-4.2-1.7-6.2-3.9c-3.1-2.5,0.8-5.2-0.1-6.4&#10;&#9;&#9;&#9;c-0.8-1.1-4-1.3-5.4-3.4c-2.1-2.9-3.6-2.3-4.8-2.3c-2.4,0-3.1-3.9-5.9-4.4c-1.6-0.3-5.3,2.5-7.1,2.1c-2.6-0.4-0.3-3.6-1.1-5.1&#10;&#9;&#9;&#9;c-0.6-1.1-3.2-0.6-4.2-0.8c-5.9,0.1-1.3,9.9-2.8,9.7c-4.6-2.6-0.9-8.6-2.4-9.7c-2-1.4-5.5,3.1-5.5,4.9&#10;&#9;&#9;&#9;C229.1,175.4,230.6,176,232.1,177.1z"
            style="fill: rgb(204, 204, 204); opacity: 1;" />
        <path class="st2"
            d="M189.6,178.8c0.9,1.7-9.5,0.4-9.2,1.7c0,0.2,1.5,1.7,2.9,2.1c1.2,0.4,2.3-0.3,3.5,0.2c0.7,0.3,0.6,1.7,1.1,2&#10;&#9;&#9;&#9;c1.3,0.8,2.6,0.3,3.2,0.3c2.2,0,4.8-1.4,6.9-2.1c1.9-1.3,6.7,2.1,7.5,1.7c2.1-0.2-0.4-1.5-0.3-2.5c0.5-2.1,3.3-0.5,3.5-1.3&#10;&#9;&#9;&#9;c0.1-0.6-0.9-1.5-2.2-2c-1.1-0.4-2.4,0.3-2.5-1c0-1.1-1.3-2.5-1.7-5.6c-1-2.8-2.7-3.7-4.3-4.5c-1.5-0.8,1,5.9-1.4,5.9&#10;&#9;&#9;&#9;c-0.8,0-0.8-2.6-1.8-3.4c-1.5-1.1-1.9,1.2-3.1,1.2c-2.1,0-8.6-3.2-10.5-2.4c-1.5,0.6-3.5,2.9-3.1,4.8c0.3,1.2,3.9,0.2,3.8,1.4&#10;&#9;&#9;&#9;C182.2,178.4,189,177.7,189.6,178.8z"
            style="fill: rgb(204, 204, 204); opacity: 1;" />
        <path class="st2"
            d="M167,173.3c1.1,1.8,2.3,3,3.3,3c0.5,0,3-0.4,4.1-1.8c0.6-0.8,0.1-2.4,0.9-3c1.4-1,3.1-2.4,4.4-3.2&#10;&#9;&#9;&#9;c1.5-0.8,2.5-0.9,2.5-2c0-1.9-2.2-2.2-5.5-2c-2.5-0.2-3.3-2.4-5.9-0.9c-0.7,0-2.9-0.9-3.5,0c-0.4,0.6,1.4,2.5,0.3,3.7&#10;&#9;&#9;&#9;c-0.5,0.9-1.7,1.5-1.7,2.6C166,171,166.4,172.3,167,173.3z"
            style="fill: rgb(204, 204, 204); opacity: 1;" />
        <path class="st2"
            d="M191,159.2c0.9-1.2,2.7-0.5,3.1-1.7c0.5-1.5-0.9-4.3-0.1-4.3c1.7,0,2.1,2.8,3.2,4c1.1,1.3,2.8-0.8,2.7,2&#10;&#9;&#9;&#9;c0,1.8-1.9,1.1-5.3,1.1c-1.5,0-3,1.7-4.5,2.4c-1.9,0.9-3.6,0.7-3.6-0.4C186.5,161.3,189.2,161.4,191,159.2z"
            style="fill: rgb(204, 204, 204); opacity: 1;" />
        <path class="st2"
            d="M177.1,151.2c-1.4,0.2-2.5,1.1-3.7,2c-1.2,0.9-2.5,1.8-2.4,2.3c0,0.2,2.7,1.5,4.2,0.9c1.3-0.5,1.3-2.8,2.5-3&#10;&#9;&#9;&#9;c1.1-0.2,1.7,1.1,2.3,1.1c2.2,0,1.9-3,1.9-3.6C181.7,149.8,179.3,151.2,177.1,151.2z"
            style="fill: rgb(204, 204, 204); opacity: 1;" />
        <path class="st2"
            d="M214.6,168.9c-0.9-1-0.6-3.4-2.5-3.1c-3.4-0.4-1,2.1-2.2,3.1c-0.8,0.7-3.5,0-3.5,1.1c0,1.4,2.4,1.2,3.8,2.1&#10;&#9;&#9;&#9;c1.4,1,1.8,3.1,2.7,3.1c2,0,3.9-1.2,3.9-3.9C216.7,169.9,215.5,169.9,214.6,168.9z"
            style="fill: rgb(204, 204, 204); opacity: 1;" />
        <path class="st2"
            d="M269.1,128.9c-2.1,1.7,5.1,2.4-4.5,7.6c-1.2,0.5-1.1,2-2.9,2.7c-1.7,0.6-5.2-1-6.2,1.3&#10;&#9;&#9;&#9;c-1.2,1.2-0.6,2.6-1.6,4.3c-1.2,2-8.3,3.9-9.4,6.2c-0.8,1.7,5.1,2.8,4.8,3.4c-1,1.7-7.4,0.2-9.7,0.2c-1.7,0-9.5,0.7-9.5-1.4&#10;&#9;&#9;&#9;c0.3-2.4,8.1-1.1,9.6-3c0.7-0.8-6-2.5-4.9-3.9c1.2-3.9,8.3,0,6.5-3c-0.8-0.6-5.9-2.7-5.6-4.3c0.1-3.6,7.3,3.1,7.3,0.4&#10;&#9;&#9;&#9;c0-1.4,6.3-3.2,6.7-4.4c0.2-0.5-1-1.4-3.3-1.2c-2,0.2-4.8,1.4-6.9,1.1c-1.9-0.3-1.6-2.4-3.4-3c-1.1-0.4-3.9,2.1-5.7,1.4&#10;&#9;&#9;&#9;c-2.8-1.2-4.2-3.6-3.5-4c1.7-1.1,2.9,1.7,5.2,1.1c3.8-1,8.1-1.4,12.4-1.4c2.6-0.1-1.3-2.6,0.1-3.2c2.8-1.1,9.6-0.7,13.1-1.5&#10;&#9;&#9;&#9;c5.2-1.2,10-0.9,12.9,0.6c1.3,0.7,5.5,0.4,5.5,2.4C276.3,129.1,270.6,127.7,269.1,128.9z"
            style="fill: rgb(204, 204, 204); opacity: 1;" />
        <path class="st2"
            d="M212.3,154.1c-1.6,0.6-4.9,1.3-4.9,3c0,0.8,1.9,0.7,2.7,1.3c1,0.6,1.1,1.7,2,1.7c1.8,0,2-1.6,3.3-3.2&#10;&#9;&#9;&#9;C215.4,155.3,214,154.1,212.3,154.1z"
            style="fill: rgb(204, 204, 204); opacity: 1;" />
        <path class="st2"
            d="M228.7,137.2c-2.1-1.5-3.6-4.1-4.9-4.1c-2.7,0-4.1,3.6-4.1,7c0,1.6,2.3,1.5,3.5,2.7c1.4,1.3,1.8,3.8,3.3,3.8&#10;&#9;&#9;&#9;c1.2,0,2.7-1.5,4.1-2.2c1.8-0.9,3.4-1.1,3.4-3C233.9,139.6,231,138.9,228.7,137.2z"
            style="fill: rgb(204, 204, 204); opacity: 1;" />
        <path class="st2"
            d="M237,203.3c1.1,0.2,2.7-2.2,3.9-2.2c2.2,0,3.5,2.7,3.5,1.3c0-1.4-1.9-3-4.2-4c-1.2,0-2.6-1.8-3.5-1.5&#10;&#9;&#9;&#9;c-0.8,0.2-1.1,2.5-1.1,3.2C235.7,200.6,236.2,203.1,237,203.3z"
            style="fill: rgb(204, 204, 204); opacity: 1;" />
        <path class="st2"
            d="M227.8,162c0.8,0.1,1.7-0.8,2.8-0.7c1.5,0.1,4.1,0.7,5.8,0.7c1.2,0,3-1,4.1-1.1c1.7,0,1.9,1.9,3,1.9&#10;&#9;&#9;&#9;c2.7,0,2.8-1.9,2.8-2.5c0-0.7-1.3-2.7-5.2-2.9c-1.4,0-4.5,1.5-6,1.5c-1.7,0-3.6,0.2-5.5-1.1c-1.7-1.1-3.6-3.7-4.5-3.6&#10;&#9;&#9;&#9;c-0.8,0.1-0.2,1.9,0,3.6c0.1,1.1-0.4,1.7-0.3,2.4C225,160.8,226.1,161.9,227.8,162z"
            style="fill: rgb(204, 204, 204); opacity: 1;" />
        <path class="st2"
            d="M292.9,246.8c-0.5-1.7-3.3-1.6-4.1-3.1c-0.9-1.6,0.3-4.7-0.6-4.7c-1.5,0-1.7,3-2.6,5.2&#10;&#9;&#9;&#9;c-0.7,1.6-2.2,2.2-2.2,3.3c0,2.6,2.6,1.1,5.1,1.1c2.5,0,5.1,4.6,5.1,2.1C293.7,250,293.4,248.5,292.9,246.8z"
            style="fill: rgb(204, 204, 204); opacity: 1;" />
        <path class="st2"
            d="M262.1,316.9c1.1-1.4,2.8-0.2,2.8-1.1c0-0.9-1.3-1.5-2.9-1.5c-2.9-0.4-3.3,1.5-3.3,2.4&#10;&#9;&#9;&#9;C258.7,317.5,260.8,318.5,262.1,316.9z"
            style="fill: rgb(204, 204, 204); opacity: 1;" />
        <path class="st2"
            d="M245.2,309.5c1.3,0,2.7,1.4,2.7,0.6c0-0.9-1.5-2.6-2.8-2.6c-1.3,0-2.2-1-2.2-0.1&#10;&#9;&#9;&#9;C243,308.2,243.9,309.5,245.2,309.5z"
            style="fill: rgb(204, 204, 204); opacity: 1;" />
        <path class="st2"
            d="M251.6,311.5c-1.6,0-2.5-2.7-2.5-1.4c0,1.3,0.7,2.3,2.1,3c1.6,1,2.9,2.2,2.9,1&#10;&#9;&#9;&#9;C254.1,312.8,253.2,311.5,251.6,311.5z"
            style="fill: rgb(204, 204, 204); opacity: 1;" />
        <path class="st2"
            d="M657.4,400.2c-2.1-2.6-4-7-5.7-11.4c-1.5-4.1-2.7-8.4-6-10.1c-3.2-1.7-1.2,9.5-4.1,12.7&#10;&#9;&#9;&#9;c-1.2,0.8-5.6-1.2-7.3-4.7c-0.8-1.6,1.8-4.6,0.5-5.9c-2.5-2.7-7.9-2-9.8-2.5c-3.3-0.9-1.9,9.8-9.3,7.1c-5.6,0-5.9,8.4-10.4,10.3&#10;&#9;&#9;&#9;c-4.3,1.8-8.4,2.9-11.2,5.9c-3.9,4.1-0.3,10-0.3,15.5c0,4.8,1.5,4.7,2.6,7.6c0.8,2.2-1.5,7.8,4.3,8.1c5.8,0,16.1-9.7,22.9-9.7&#10;&#9;&#9;&#9;c5.1,0,15.8,16,21,16.9c7.7,1.4,12.9-1.1,15.7-10.4c1.6-5.4,4.7-9.1,4.7-13.1C665.1,412.6,660.6,404.1,657.4,400.2z"
            style="fill: rgb(204, 204, 204); opacity: 1;" />
        <path class="st2"
            d="M650.2,445.3c-1.1,0-0.7,1.5-0.7,3.3c0,1.8,1,3.2,2.2,3.2c1.1,0,3.4-2.2,3.4-4&#10;&#9;&#9;&#9;C655.1,446,651.4,445.3,650.2,445.3z"
            style="fill: rgb(204, 204, 204); opacity: 1;" />
        <path class="st2"
            d="M695.9,453.8c-0.7,2.5-1.7,5-3.9,5.7c-1.4,0.5-3.5,0.2-4.5-1.3c-0.7-2.1,2.2-4.9,5.3-7&#10;&#9;&#9;&#9;c3.4-3.2,6.1-9.2,7.9-4.3C700.9,449.9,698.8,450,695.9,453.8z"
            style="fill: rgb(204, 204, 204); opacity: 1;" />
        <path class="st2"
            d="M705.9,437.4c-2.4-2.1-6.2-7.9-6.9-7.9c-1.4,0,2.2,4.2,2.2,8.4c0,4.2,0.3,8.4,1.6,8.4c0.9,0,2.8-0.9,4.1-4.9&#10;&#9;&#9;&#9;c0.7-1.1,1.6-1.3,1.6-2.7C708.5,436.8,707.9,439,705.9,437.4z"
            style="fill: rgb(204, 204, 204); opacity: 1;" />
        <path class="st2"
            d="M452.2,394.5c-1.9,0-3.2-2.5-3-7.1c0.1-1.5,1.7-3.9,1.7-5.7c-2.5-7.4,2.6-7,4.5-9.7c1.8-2.6,2.8-4.8,4.1-4.8&#10;&#9;&#9;&#9;c3.3,0-0.2,5.3-0.2,13.1C459.3,387.4,454.7,394.5,452.2,394.5z"
            style="fill: rgb(204, 204, 204); opacity: 1;" />
        <path class="st2"
            d="M364.8,203.7c-1.1,0-3.5,3.8-2.8,6.3c0.3,1.3,4.6,3,4.9,4.6c0.3,1.6,0,2.4,0,4c0,2.7-4.1,7.9-3.3,9.2&#10;&#9;&#9;&#9;c0.7,1,2.8-0.5,4.9-1.4c1.2-0.6,2.4-0.4,3.2-0.8c4.5-2.5,1.2-5.4,0.8-7.1c-0.8-1.7-3.5-1.3-3.5-3.6&#10;&#9;&#9;&#9;C369,208.6,367.2,203.7,364.8,203.7z"
            style="fill: rgb(204, 204, 204); opacity: 1;" />
        <path class="st2"
            d="M355.4,219.3c1.1-2.8,1.1-5.5,3.3-6c1,0,3-0.2,3,3.3c0.6,3-1,5-2.3,6.3c-0.5,0.5-0.5,1.6-1.1,1.6&#10;&#9;&#9;&#9;c-1.8,0.3-4.6,0.3-4.6-3.2C353.6,220.6,355,221.1,355.4,219.3z"
            style="fill: rgb(204, 204, 204); opacity: 1;" />
        <path class="st2"
            d="M356.5,249c0.9-1.2-0.6-3.5,0.5-4.7c1.2-1.5,10.2,3,12.2,0.6c4.7-8.4-6.6-11.2-4.9-13.2&#10;&#9;&#9;&#9;c1.4-1.5,9-1.3,9.4-4.2c1.9-3.3,3.8-3.1,6.2-5.8c2.3-2.6,5.6-2.9,7.3-5c0.8-1-1.2-5.8,0-7.8c1.7-1.9,0.8-2.8,2.1-3.3&#10;&#9;&#9;&#9;c5.5-1.1-1.8,6.2,1.9,9.5c0.8,0.7,2.6,0,4.1,0.2c2,0.4,5.1-0.1,7.1-0.2c2.4-0.2,3.1,1.2,3.7,0.8c1.7-3.1,3.4-0.6,4.1-2.3&#10;&#9;&#9;&#9;c0.9-2.2-0.1-6,0.8-6.8c1-0.8,2.7,1.9,3.6,1.4c1.2-0.8,0.3-1.9,0.4-2.6c1.7-8.2,5.5-2.8,8.2-5.8c1.8-2,0.6-2.7-2.5-2.3&#10;&#9;&#9;&#9;c-2.2,0.3-5.9,1.8-7.6,1.5c-2-1.3-2.1-4.3-3.2-5.6c-1.5-4.4,10.8-11.3,4.4-13.6c-3.1-1.6-2.1,4.4-5.2,7c-1.1,0.9-4.5,2.2-5.2,5.7&#10;&#9;&#9;&#9;c-0.5,2.9,3.8,7.3,0.7,9c-1.6,1.4-5.2,11-8,10.3c-2.6-0.7-3.4-12-5.7-10.6c-5.4,5-7.7,5.5-6.8,4.3c4.9-6.6-10.4-3.7,0.2-14.6&#10;&#9;&#9;&#9;c2-2.1,4.7-4.4,6.9-6.3c1.4-1.1,3.6-6.9,5.1-8c4.1-2.9,6.3-7.5,11.1-9.5c5.3-4.6,12.3-2.5,19-1c1.6,0.4,4.3,0.5,6.8,1.4&#10;&#9;&#9;&#9;c8,2.9,13.1,5.5,12.4,7.5c-0.9,2.7-3,4.3-5.8,4.2c-5.4-0.3-12.8-6.2-7.4,0c1,1.1,2.8,4.9,3.8,5.3c0.9,0.4,1-2.3,1.9-2.6&#10;&#9;&#9;&#9;c2.4-0.7,2,2,4.5,1.3c4-1.1,5.5-5.5,4.3-5.2c1.4-0.4,1.9,0.9,3.2,0.6c3.1-0.8-3.2-7.2,3.1-8.4c4.5,1.9-3.8,6.9,2.9,6.1&#10;&#9;&#9;&#9;c1.3-0.1,3.2-3.8,6-5c2.9-1.3,4.8,0.4,6.2-0.1c1.2-0.2,5.9-2.1,7.1-2.3c0.4-0.1,2.3,1.6,3.6,0.8c1.4-0.9,0.9-3.6,1.4-3.7&#10;&#9;&#9;&#9;c6.7-0.2,10.3,5.9,12.9,4.5c2.3-1.2-4.3-9.6-2-9.8c2.5-0.4,3.1-10.1,10.1-5.8c1.2,1.2-1.3,2.2-0.9,4.6c1.3,1.9,0.6,4.9,0.6,7.1&#10;&#9;&#9;&#9;c0,2.1,1.8,3.8,1.2,5.5c-2,5.9-7.6,4.3-6.9,5.3c0.6,1.7,6.2,2.8,7.7-2.3c0.3-1.2,1.7-3.2,1.8-4.6c0.2-2.3-1.5-6.1-1.4-8.2&#10;&#9;&#9;&#9;c0.3-5.1,2.1-7.7,2.6-7.7c1.1-0.1-1.6,5,0.5,5.8c1.2-0.1,3,1.6,4.3,1.5c1.4-2.6-1.8-1.7-1.9-3.1c-0.2-1.6,1.9-3,4.5-2&#10;&#9;&#9;&#9;c1.6-0.1,5.1,7.6,6.8,6.3c2.1-4.6-9.8-12.8-2.3-11.7c4.1,0,7.1-0.8,9.7-2.2c1.1-0.6-2.3-2.6-1.2-3.4c1.2-0.8,5.9-1.9,7.2-2.8&#10;&#9;&#9;&#9;c3.2-1.4,4.9-2.4,7.2-2.7c0.7-0.4,3.6,2.8,6.1,0.7c1.1-0.7,2.8-1.2,3.8-1.8c3.2-2,4.4-4.6,5.4-4.7c1.9-0.2,3.2,3.8,6.3,5&#10;&#9;&#9;&#9;c1.1,0.3,4-1.1,6.1-0.6c3.2,0.7,5.4,3.4,4.2,4.7c-1.3,1.7-15.9,9.8-12.7,9.9c0.4,0,1.8-1.2,4.6-0.6c1.5,0.3,4-2.7,6-2.3&#10;&#9;&#9;&#9;c2.3,2.4,4.3,0,6.4,0.5c2.3,0.5,6.1,2.3,8.4,2.8c2.5,0.5,10.5-2.6,12.8-2.1c3.5,0.2-3.5,3.9-0.5,4.4c3.1,0.6,4.2,6.2,5.9,6.2&#10;&#9;&#9;&#9;c1,0,0.9-1.7,6.9-2.8c1.3-0.2,5.2,0.1,7-0.9c2.5-1.5,3-4.6,4.5-4.9c2.6-0.5,7.8,4,8.3,4c2.2,0,9.4,4.5,11.5,4.6&#10;&#9;&#9;&#9;c2.4,0.1,6.3-1.4,9.4-0.8c1.6,0.3,4.1,1.1,3.9,4.6c-0.7,1.9,0.6,1.1,1.7,1.2c3.8,0.5,5.3,0,8.3-0.4c4.2-2.7,5.1,3,7.5,2.4&#10;&#9;&#9;&#9;c4.3-0.4-2.7-7.2,5.7-4c5.8,2.5,12.9-2.6,12.9,6.3c0,2.3-0.2,10.3-2.5,13.1c-0.5,2,2.1,5.3,0,7.1c-1.3,1.3-3.6-2-5.6,0.2&#10;&#9;&#9;&#9;c-1.1,1.9-6.7,3.5-7.8,4.6c-4.6,3-11.4,1.1-13.2,2.7c-1.1,1-2.4,2.9-2.6,5.2c-0.4,3.6,3.5,5.3-3.5,10.4c-1.1,0.7-2.6,2.7-3.1,4.2&#10;&#9;&#9;&#9;c-1,2.7,0.1,4.6-2.6,5.5c-1.3-0.2-2.4-4.5-2.1-7.5c0.8-1.8-1.6-4.5-0.7-6.5c3.8-8.9,18.1-15.4,14.6-19.6c-0.9-0.5-3.6,4.7-5.3,5&#10;&#9;&#9;&#9;c-2,0.5-2.1-3.6-5.7-2.3c-2.6,0.8-4.3,6.9-7.6,7.5c-4.3,1.3-3-3.6-12.3,0.6c-2.4,0.9-5.7-1.3-7,0.4c-1.7,4.5-11.9,8.6-12.4,12.3&#10;&#9;&#9;&#9;c-0.2,1.8,2,2.9,4.3,2.5c1.6-0.3,1.3-2.7,4.4-1.4c2.3,1,3.5,4.5,0.7,14.2c-1.9,9.9-8.1,12-12.2,16.4c-0.9,1-1.8-1-3.5-0.1&#10;&#9;&#9;&#9;c-1.4,0.7-2.7,4.5-3.9,5.7c-0.9,0.9-2.3,0.8-2.6,2c-1.2,4.3,5.3,4.3,2.6,11.2c-1,2-3.2,1.6-5,1.1c-1.4-0.4-0.4-4.5-0.7-5.5&#10;&#9;&#9;&#9;c-0.7-2-1.9-3.7-2.6-5.8c-0.8-2.5-3.9,1.4-5.3-0.1c-1.3-1.5,1.8-7.7-7,0.8c-0.7,0.8,0.8,3.5,3.2,4.3c1.6,0.5,4.2-1.6,5,0&#10;&#9;&#9;&#9;c0.7,1.3-4.9,2.7-4.9,4.6c0.1,5.1,5.5,4.5,3.1,15.7c-0.9,2.1-1.7,2.2-2.4,3.6c-1.4,2.5-2.5,5.3-5.2,7.1&#10;&#9;&#9;&#9;c-15.6,10.4-12.6,1.2-17.5,6.3c-8.9,6.6,14.5,14-3.9,25.4c-1.4,0.2-0.5-2.1-1.9-3.8c-0.6-0.7-1.9-1.3-2.5-2&#10;&#9;&#9;&#9;c-1.9-2.1-3.2-4.3-4-4.5c-1.1-0.1-1.1,4-2.1,7.7c0.1,3.3,2,1.1,3.6,6.2c0.5,1.8,3.3,3.4,3.8,5c0.9,3.1,1.5,5.6,1.3,6.4&#10;&#9;&#9;&#9;c-0.6,0.5-1.1,1.4-2.4-0.6c-0.6-1.5-2.4-2.1-3-3.7c-0.7-5.6-4.3-8.1-5-9.7c-0.7-1.9,1.3-5.1,1-7.6c-0.6-1.9-1.3-3.2-1.7-5&#10;&#9;&#9;&#9;c-0.5-0.6-0.2-4.5-0.7-5.1c-0.7-0.9-4.5,2.2-5.2,1.3c-1.4-2,1.1-4.4-0.6-6.2c-0.9-0.9-1.3-2.3-2.2-3.1c-1.3-1-1.7-4.2-3.1-4.9&#10;&#9;&#9;&#9;c-0.9-0.4-4.2,0.4-6.5,2.3c-4.2,3.4-9.7,10.5-12,11.9c-1.4,1.1-0.5,6-1.6,10.4c-1.1,4-2.7,6.3-4.1,5.9c-0.9-0.5-1.8-3.9-3.3-8.3&#10;&#9;&#9;&#9;c-0.5-1.4-1.5-2.9-1.9-4.4c-0.3-0.9-0.5-1.9-0.8-2.8c-1-4.1-1.3-9.4-2.3-11.5c-0.5-1.1-2.8,1.3-3.7,0.5&#10;&#9;&#9;&#9;c-5.4-2.3-4.3-13.3-12.9-9.3c-2.3,0.1-4.9,0.8-8.3-1.2c-1.3-0.7-2.1-3.3-3.6-3.8c-2-0.7-3.2,3.2-6.3-0.5c-3.9-2.8-6.9-7.3-8.1-6.3&#10;&#9;&#9;&#9;c-0.2,0.1-2.2,1.7-0.3,3.4c4,3.7,4.2,8.4,6.9,10.4c3.7,2.1,5.5-4.6,7.3-3.6c1.2,0.6,0.4,2.5,1.2,3.3c0.9,0.9,2.3,1,3.2,1.7&#10;&#9;&#9;&#9;c1.5,1.2,2,2.8,1.4,3.6c-1.7,1.5-3.9,5.2-7.5,8.5c-1.3,1.2-2.2,1.3-3.8,2.4c-2.4,1.6-5.4,4-6.9,4.8c-1.5,0.4-7.7,4.7-9.5,3.1&#10;&#9;&#9;&#9;c-1.7-1.6-1.2-8.4-4.2-11.9c-3.1-3.6-3.2-9-6-12.7c-5.2-6.9-9.3-12.6-10-11c-0.7,1.4,2.4,5.1,5.9,13.6c2.5,3.9,0.4,6.3,2.7,8.9&#10;&#9;&#9;&#9;c0.5,0.6,1.7,2.2,3.1,4.2c0.6,0.9,0,3,0.7,4c1.1,1.5,3,1.7,4.3,3c2.2,2.3,3.5,5.4,4.1,6.1c3.4,4,8.9-6.3,12.1-1.5&#10;&#9;&#9;&#9;c1.9,2.8,0,4.8-0.5,5.7c-3.4,10.6-19.3,21.1-21.2,29.8c-0.6,1.9,1.1,5.5,1.9,9.3c0.9,4.2,0.9,8.4,0.3,10.4&#10;&#9;&#9;&#9;c-1.4,4.5-7.6,6.2-9,10.3c-1.2,3.4,1.4,6.2,0.7,9.4c-0.6,1.6-2.9,1-4.2,3.2c-1.7,3.1,0.8,7.4-4,11.4c-3.4,4.9-6.6,9-13.7,8.2&#10;&#9;&#9;&#9;c-1.6,0.5-1.8,2.4-3.7,2.4c-8.7-1.1-3.8-5.7-5.5-8.2c-1.6-2.3-2.9-3-3.1-6.8c-0.3-3.6-3.3-5.9-3.5-10c0.7-6.1-3.2-9.6-4.1-14.5&#10;&#9;&#9;&#9;c-1-6,2-7.8,2.3-12.6c0.4-5.2-1.4-13.4-2.7-14.4c-7.3-4.5-1.2-18.4-5.1-18.9c-4.5,2-7.1-3.4-9.3-4.4c-2.2-1-10.7,6-12.7,3.8&#10;&#9;&#9;&#9;c-0.7-2.4-4.6,3-6.8,2.3c-1.2-1.2-8.9-8.5-11.3-12.7c-0.4-1.5-4.4-3.7-4.8-5.3c-0.8-3,1.2-11.3,0.6-13.8c-0.7-2.9-0.4-5.1-0.6-5.9&#10;&#9;&#9;&#9;c-0.4-2,3.6-8.5,5-11.9c1.6-2.2,3.4-3.2,5.1-5.6c1.7-1.5,1.5-5.2,2.3-6.5c0.7-1.1,2.4-2.2,4.1-3.9c0.9-0.9,1.1-2.5,2.6-3.2&#10;&#9;&#9;&#9;c1.4-0.7,4.4,1.2,6.3,0.6c1-0.3,3.2-2.3,4.4-2.6c4.4-1.1,8.6-1.7,15.5-2c0.5,0,3,0.6,4.6,2.6c0.9,1.5-4,4-2.6,4.7&#10;&#9;&#9;&#9;c2.4,1.1,6.3,2.4,8.6,3.4c0.6,0.3,6.7,4.9,7.3,5.1c2.8,1.2,0.8-4.5,2.6-5.2c1.2-0.6,4.7-0.5,8.7,1.7c1.4,0.3,4.8,2.4,6.1,2.7&#10;&#9;&#9;&#9;c3.9,0.4,7.3-0.1,7.9-0.1c3-0.2,3-8.3,4.3-10.6c-0.1-0.4,4.8-3-1.5-3.2c-1.2,0-2.3,1.5-3.3,1.5c-1.5,0-4-0.3-6.2-0.1&#10;&#9;&#9;&#9;c-0.9,0.1-1.8-0.9-3.1-1.5c-1-1.2-1.9-9.9-3.4-9.7c-0.6,0.1-2.3,1-3.7,1.7c-1.3,0.2-0.8,3.8-1.2,6.3c-0.3,1.8-0.9,2.8-2,2.5&#10;&#9;&#9;&#9;c-1.6-1-1.6-5.4-3.2-6.3c-1.5-1.2-1.7-7.7-4.1-8.3c-2.1-0.9-2.5-3.4-4.6-3.9c-1.9-0.5-2-3.4-3.9-3.4c-0.4,0-2.5,0.9-1.1,2.6&#10;&#9;&#9;&#9;c0.4,0.5,1.2,1.6,1.7,2.3c1.7,2,4.4,4.9,6.3,6.1c2.8,1.3,3.1,3.8,0.7,3c-0.6,0-0.8,1.9-1.7,4c-0.9,1.5-2.4,2.4-2.8,2.8&#10;&#9;&#9;&#9;c-0.5,0-3.9,2.4-2.4-1.5c0-0.7,3.9-3.5,3.9-4.2c0-1.6-3.9-3.5-4.2-3.6c-5.6-1.9-4-8.7-6.6-8.7c-1.7-0.8-3.1,2.3-6.1,3.1&#10;&#9;&#9;&#9;c-1.5,0.4-3.2-1.3-4.5-0.6c-2.5,1.4-1.3,4.5-3.3,4.9c-2.6-0.1-3.4,11.3-7.4,11.6c-3.9-0.2-4.2,1.6-6.3,1.4c-0.7-0.2-1-1.6-2.1-2.1&#10;&#9;&#9;&#9;c-1.3-0.4-3.5-0.2-3.6-0.4c-0.6-0.7-1.3-2.3-1.3-4.4C355,254.3,355.5,250.5,356.5,249z M438.8,240.8c-1.3-1,2.9-5,2.3-5.2&#10;&#9;&#9;&#9;c-1.5-1.2-4.4,1.9-5.8,1.7c-1.1-0.4-2.2,0.4-3.2,0.4c-1.3,0-3.1-1.7-4.2-1.2c-1,0.4-1.4,3-2.3,3.7c-2.2,1.9-3.6,4.6-3.6,6.7&#10;&#9;&#9;&#9;c0,3.7,4.6,1.2,10.4,1.2c2.2,0,5,2.3,7.2,2.7c3.6,0.7,6.2-0.4,6.2-2.7C445.8,245.6,442.4,243.8,438.8,240.8z M462.4,242.1&#10;&#9;&#9;&#9;c-0.2-1.9,4.9-2.9,4.5-4.4c-0.7-2.6-1.2-2.4-2.4-2.4c-2.7,0-8.8,4.3-8.9,6.6c0,1.5,1.1,1.4,1.5,3.2c0.3,1.3,1.9,3.6,2.3,4.9&#10;&#9;&#9;&#9;c1.9,3-0.7,4.1,0,5.5c1.7,3.5-2.1,4.1,4.9,6c1.1,0,2.7,0,3.5-1.3c0.8-1.3-1.2-4.6-0.9-7.1c0.1-1,1.9-1.4,1.9-2.6&#10;&#9;&#9;&#9;C468.7,248.6,462.6,244,462.4,242.1z"
            style="fill: rgb(204, 204, 204); opacity: 1;" />
        <path class="st2"
            d="M481.3,140.4c5.9,0,12.8-6.2,12.8-2.1c-0.3,1.4-4.7,6.3-10.6,6.3c-5.9,0-14.4,10.4-14.4,6.3&#10;&#9;&#9;&#9;C469.1,146.8,475.4,140.4,481.3,140.4z"
            style="fill: rgb(204, 204, 204); opacity: 1;" />
        <path class="st2"
            d="M469,152.8c-1.9,0-2.9,2.8-2.9,5.2c-0.6,3.7,1.8,4.5,3.7,4.5c5.6-0.2,0.9-2.8,0.9-5.2&#10;&#9;&#9;&#9;C470.7,154.9,470.8,152.8,469,152.8z"
            style="fill: rgb(204, 204, 204); opacity: 1;" />
        <path class="st2"
            d="M400.4,126.4c-3.5,0-9.1-4.5-9.1-0.2c0,1.8,1.7,3.3,3.5,5.5c0.9,1.1,2.2,1.4,3.2,2.3c1.8,1.6,2.9,4.3,4.3,4.3&#10;&#9;&#9;&#9;c1.8,0,2.3-3.4,3.5-5.2c1.2-3,2.8-1.7,2.8-3.8C408.4,124.8,405.1,127.2,400.4,126.4z"
            style="fill: rgb(204, 204, 204); opacity: 1;" />
        <path class="st2"
            d="M619.1,252.7c-0.6,1-1.2,5.7-2,6.6c-1.2,1.3-3.6,2.5-5,3.8c-0.8,0.7-2.8-0.4-3.5,0.3c-1.8-0.2-5.3,1.7-4.9,3&#10;&#9;&#9;&#9;c1,2.2,2.2,4.7,4.2,3.5c3.1-3.6,3.1,0.7,5.1-0.9c3.9-3.8,4.8-0.2,7.7-2.8c2.1-1.9,0.3-8.5,3.4-11.1c0.9-1.4-2-5.2-1.2-7&#10;&#9;&#9;&#9;c0-1.1,2.4,2.2,3.5,1c1.5-1.3,3.4-3.1,3.7-3.8c0.7-2.2-5.1-5.9-6.8-5.9c-1.3,0-1.7,3.7-2.4,4.9c-0.7,1.2-1.6,0.1-1.6,3.5&#10;&#9;&#9;&#9;C619.2,248.9,619.9,251.4,619.1,252.7z"
            style="fill: rgb(204, 204, 204); opacity: 1;" />
        <path class="st2"
            d="M631.6,365.1c0.9,1,3.5,1.9,4.5,2.8c3.2,2.9,4.2,7.1,7.5,7.1c2.2,0,3.5-4.5,5.9-3.6c6.1,2.4,9.4,8.9,9.4,5.5&#10;&#9;&#9;&#9;c0-4.8-6.2-14.7-14.2-14.7c-8,0-19.5-9.8-19.5-5C625.1,359.4,628.4,361.4,631.6,365.1z"
            style="fill: rgb(204, 204, 204); opacity: 1;" />
        <path class="st2"
            d="M579.2,367.2c5.6,0,0.8-7.4-2.6-11.6c-7.3-6.4-9.1-11.9-14.6-11.9c-5.6,0,5.2,8.6,8.3,15.2&#10;&#9;&#9;&#9;C572.2,363.2,573.6,367.2,579.2,367.2z"
            style="fill: rgb(204, 204, 204); opacity: 1;" />
        <path class="st2"
            d="M588.4,361.3c0.3,1.2,1.7,0.5,2.1,0.9c1,0.8,1.6,0.3,2.6,0.7c1.3,0.6,1.8,1.7,3.1,1.7c2,0,3-2,3.8-5.2&#10;&#9;&#9;&#9;c0.3-1.2,2.1-3.4,2.2-4.7c0.3-3.3-1.4-6.4-2.3-7.6c-4-3.2-1.4,5.5-6.1,5.5c-1.5,0-2.8,0.1-3.9,0.2c-2.3,0.4-4.4-0.8-4.4,1.6&#10;&#9;&#9;&#9;C585.5,355.8,587,358.6,588.4,361.3z"
            style="fill: rgb(204, 204, 204); opacity: 1;" />
        <path class="st2"
            d="M572.2,333.3c2.7,0,4.5-3.6,5.1-0.7c0,1.8-1.1,5.2-3.9,5.2c-2.7,0-5.9,1.9-5.9,0.1&#10;&#9;&#9;&#9;C567.5,336.1,569.4,333.3,572.2,333.3z"
            style="fill: rgb(204, 204, 204); opacity: 1;" />
        <path class="st2"
            d="M592.9,326.3c1.9,0,3.3,0.4,3.3-1.1c0-1.5,0.6-4.2-1.3-4.2c-1.9,0-7.1,2.8-7.1,4.3&#10;&#9;&#9;&#9;C587.8,326.7,589.5,327.8,592.9,326.3z"
            style="fill: rgb(204, 204, 204); opacity: 1;" />
        <path class="st2"
            d="M604.7,366.5c1.7,0,4.7-3.6,4.7-7.2c0-3.6,4.4-6.3,2.7-6.3c-1.7,0-7.4,1.1-7.4,4.7&#10;&#9;&#9;&#9;C604.7,361.3,603,366.5,604.7,366.5z"
            style="fill: rgb(204, 204, 204); opacity: 1;" />
        <path class="st2"
            d="M515.2,327.6c0.8,0,2,0.2,2-1.5c0-1.8-1.2-4.9-2-4.9s-1.5,1.4-1.5,3.2C513.7,326.1,514.4,327.6,515.2,327.6z"
            style="fill: rgb(204, 204, 204); opacity: 1;" />
        <path class="st2"
            d="M339.7,187.9c2.1,1,3.7-0.2,5.3-1.2c1.7-1.1,3.4-2.2,3.4-3.2c0-1.9,0-4.4-4.6-4.4c-2.6,0-5.2,0.9-7.8,1.4&#10;&#9;&#9;&#9;c-2,0.4-4.6,0.1-4.6,1C331.4,183.4,337.8,186.3,339.7,187.9z"
            style="fill: rgb(204, 204, 204); opacity: 1;" />
    </g>
</svg>