<svg width="24" height="24" viewBox="0 0 24 24" fill="none" xmlns="http://www.w3.org/2000/svg">
    <path
        d="M12 21C9.9957 21 8.14442 20.3448 6.64865 19.2369M12 21C11.9595 19.8243 16.206 16.4363 13.8876 15.4056C12.4287 14.7571 14.1563 13.7846 15.7954 13.9997C17.327 14.2007 18.7887 15.4054 20.3334 15.4054V15.4054M12 21C15.7654 21 18.9908 18.6876 20.3334 15.4054M12 3C9.9957 3 8.14442 3.65518 6.64865 4.76305M12 3C12.3649 4.37838 9.65504 6.72162 11.2118 7.01351C13.1577 7.37838 14.0092 7.13514 13.8876 8.22973C13.7659 9.32432 14.2843 10.3025 14.9821 10.1757C16.3199 9.93243 17.293 10.0543 17.7794 9.08132C18.2659 8.10834 20.9315 10.2973 20.6325 9.44595M12 3C16.0834 3 19.5316 5.71939 20.6325 9.44595M6.64865 4.76305C4.435 6.40265 3 9.03374 3 12C3 14.9663 4.435 17.5974 6.64865 19.2369M6.64865 4.76305C7.33784 6.64834 5.05775 10.0784 7.68477 10.1757C10.9686 10.2973 11.1216 15.2838 11 16.5C10.8784 17.7162 6.64865 12.5 5.98215 16.0137C5.80513 16.947 5.18919 18.8117 6.64865 19.2369M20.3334 15.4054C20.7631 14.3549 21 13.2051 21 12C21 11.1128 20.8716 10.2556 20.6325 9.44595"
        stroke="#2E2E2E" stroke-width="1.5" />
</svg>
